# xmcd
#
# Track frame offsets:
#	150
#	11315
#	27509
#	40399
#	51602
#	68830
#	79450
#	91692
#	107457
#	119750
#	130300
#	141388
#	153418
#	168067
#	180916
#	194306
#	205386
#	219708
#	233218
#	247124
#	261501
#
# Disc length: 3684 seconds
# Revision: 2
# Processed by: cddbd v1.5.2PL0 Copyright (c) Steve Scherf et al.
# Submitted via: dBpowerAMP V12.0
#
DISCID=360e6215
DTITLE=John Lee Hooker - Eight Classic Albums - Disc 4 of 4
DYEAR=2014
DGENRE=Blues
TTITLE0=Boom Boom
TTITLE1=Process
TTITLE2=I Lost a Good Girl
TTITLE3=A New Leaf
TTITLE4=Blues Before Sunrise
TTITLE5=Let's Make It
TTITLE6=I Got a Letter This Morning
TTITLE7=Thelma
TTITLE8=Drug Store Women
TTITLE9=She's Mine (Keep Your Hands to Yourself)
TTITLE10=What Do You Say
TTITLE11=Baby I'm Gonna Miss You
TTITLE12=Half a Stranger
TTITLE13=Shake Holler and Run
TTITLE14=Down Child
TTITLE15=Gonna Boogie
TTITLE16=Bad Boy
TTITLE17=Rock House Boogie
TTITLE18=Let's Talk It Over
TTITLE19=Baby You Ain't No Good
TTITLE20=Lookin' for a Women
EXTD=
EXTT0=
EXTT1=
EXTT2=
EXTT3=
EXTT4=
EXTT5=
EXTT6=
EXTT7=
EXTT8=
EXTT9=
EXTT10=
EXTT11=
EXTT12=
EXTT13=
EXTT14=
EXTT15=
EXTT16=
EXTT17=
EXTT18=
EXTT19=
EXTT20=
PLAYORDER=
